<?xml version="1.0" standalone="no"?>
<!DOCTYPE svg PUBLIC "-//W3C//DTD SVG 20010904//EN"
 "http://www.w3.org/TR/2001/REC-SVG-20010904/DTD/svg10.dtd">
<svg version="1.0" xmlns="http://www.w3.org/2000/svg"
 width="512.000000pt" height="512.000000pt" viewBox="0 0 512.000000 512.000000"
 preserveAspectRatio="xMidYMid meet">

<g transform="translate(0.000000,512.000000) scale(0.100000,-0.100000)"
fill="#B2B7BC" stroke="none">
<path d="M1571 5038 c-296 -38 -565 -232 -696 -501 -66 -137 -86 -225 -92
-403 l-6 -151 -108 -7 c-132 -9 -202 -25 -294 -71 -138 -68 -242 -175 -312
-320 -54 -115 -64 -184 -61 -441 l3 -226 900 -269 c495 -148 911 -272 926
-275 23 -5 28 0 64 72 70 143 221 266 381 310 38 10 119 18 230 21 265 9 381
-15 516 -104 82 -54 157 -136 200 -220 23 -43 38 -61 48 -58 8 2 413 117 900
255 487 138 900 255 918 261 l32 11 0 222 c0 240 -8 305 -47 406 -62 158 -178
283 -328 355 -110 53 -151 63 -292 71 l-110 7 -6 151 c-4 106 -12 175 -26 231
-84 321 -336 571 -661 657 -85 22 -86 22 -1045 24 -561 1 -991 -2 -1034 -8z
m1995 -579 c40 -15 75 -39 115 -78 76 -75 99 -137 106 -288 l6 -113 -1233 0
-1233 0 6 113 c10 202 70 299 224 363 l58 24 947 0 c944 0 947 0 1004 -21z"/>
<path d="M2397 2410 c-90 -16 -165 -78 -196 -163 -7 -18 -11 -153 -11 -366 l0
-337 28 -55 c33 -66 93 -113 162 -128 66 -14 294 -14 360 0 68 14 128 62 162
128 l28 53 0 339 c0 367 -1 372 -55 444 -15 19 -52 47 -82 61 -51 25 -66 27
-201 30 -81 2 -168 -1 -195 -6z"/>
<path d="M0 1449 c0 -863 0 -850 68 -994 70 -145 186 -258 334 -324 132 -59
-1 -56 2163 -56 1894 0 1993 1 2054 18 231 66 397 228 477 467 17 51 19 108
22 858 2 607 0 802 -9 802 -9 0 -1404 -394 -1755 -496 l-51 -15 -7 -102 c-14
-200 -59 -310 -181 -433 -92 -93 -183 -144 -300 -169 -96 -20 -414 -20 -510 0
-99 21 -204 76 -280 146 -124 116 -178 231 -198 415 l-12 117 -885 263 c-487
145 -895 267 -907 270 l-23 6 0 -773z"/>
</g>
</svg>
