<?xml version="1.0" standalone="no"?>
<!DOCTYPE svg PUBLIC "-//W3C//DTD SVG 20010904//EN"
 "http://www.w3.org/TR/2001/REC-SVG-20010904/DTD/svg10.dtd">
<svg version="1.0" xmlns="http://www.w3.org/2000/svg"
 width="398.000000pt" height="222.000000pt" viewBox="0 0 398.000000 222.000000"
 preserveAspectRatio="xMidYMid meet">

<g transform="translate(0.000000,222.000000) scale(0.100000,-0.100000)"
fill="#0E88D3" stroke="none">
<path d="M287 1919 c-39 -10 -55 -26 -78 -73 -24 -51 -18 -82 25 -132 36 -41
84 -53 141 -34 35 12 85 84 85 124 0 36 -25 83 -53 97 -33 18 -88 26 -120 18z"/>
<path d="M70 1490 l0 -70 33 -1 c17 -1 238 -2 489 -3 368 -2 460 -5 473 -16
14 -12 6 -17 -67 -47 -126 -50 -225 -113 -212 -135 4 -6 2 -8 -3 -5 -14 9 -85
-64 -78 -81 3 -7 1 -10 -5 -7 -12 7 -44 -41 -35 -55 4 -6 1 -9 -6 -8 -8 2 -30
-38 -55 -98 l-42 -101 202 -6 c236 -8 309 -18 385 -54 31 -15 58 -27 60 -27 9
-2 68 -53 124 -108 69 -69 78 -108 25 -108 -18 -1 -155 0 -304 0 -236 1 -272
-1 -277 -15 -4 -8 -12 -15 -20 -15 -19 0 -99 -85 -90 -95 5 -4 3 -5 -3 -2 -13
7 -60 -38 -47 -46 4 -3 152 -5 329 -6 318 -2 321 -1 350 21 16 12 31 25 34 28
3 3 30 26 62 52 60 51 122 134 111 151 -3 6 -1 7 5 3 18 -11 45 52 38 88 -4
22 -3 27 4 16 7 -11 10 -7 10 17 0 40 -19 85 -33 76 -6 -3 -7 -1 -3 5 8 14
-51 73 -109 107 -22 13 -81 38 -132 54 -78 27 -111 32 -230 37 -225 9 -226 9
-237 26 -7 12 -3 25 17 51 15 20 27 40 27 44 0 5 19 28 43 51 66 65 134 67
287 9 30 -11 65 -27 78 -35 12 -8 25 -12 28 -9 4 3 15 -3 27 -13 11 -11 24
-17 29 -14 4 3 8 1 8 -3 0 -8 64 -37 66 -31 0 2 8 -3 17 -11 11 -9 17 -10 17
-2 0 6 3 10 8 8 6 -1 172 159 172 166 0 1 -47 27 -104 56 -75 40 -102 59 -99
70 4 15 114 16 1194 13 944 -2 1194 0 1206 10 19 16 13 115 -8 129 -8 5 -815
9 -1886 9 l-1873 0 0 -70z m1480 -710 c0 -5 -2 -10 -4 -10 -3 0 -8 5 -11 10
-3 6 -1 10 4 10 6 0 11 -4 11 -10z"/>
<path d="M1800 813 l0 -434 110 2 c61 1 111 3 112 3 1 1 5 136 8 300 l5 299
70 25 c124 44 255 28 326 -39 30 -29 66 -110 71 -162 2 -20 6 -38 10 -40 9 -3
146 131 140 138 -3 3 0 5 7 5 7 0 9 5 6 10 -3 6 2 10 12 10 15 0 16 2 3 10
-11 7 -12 10 -2 10 11 0 12 10 7 42 -15 87 -55 165 -78 151 -6 -3 -7 -1 -3 5
7 12 -32 42 -82 62 -84 33 -254 -20 -390 -122 -109 -83 -102 -86 -102 42 0 60
-3 110 -7 110 -5 0 -56 2 -115 4 l-108 4 0 -435z"/>
<path d="M2908 1243 c-50 -3 -58 -7 -58 -23 0 -11 6 -20 13 -20 9 0 9 -2 -1
-9 -11 -6 -13 -74 -10 -337 l3 -329 25 -40 c26 -43 50 -71 50 -59 0 4 6 1 13
-8 25 -33 89 -38 446 -38 l350 1 6 32 c3 18 4 176 2 352 l-3 320 -27 45 c-14
25 -40 59 -57 75 -28 27 -39 31 -118 36 -98 6 -547 8 -634 2z m614 -221 c20
-20 26 -411 7 -423 -15 -10 -421 -12 -456 -3 -21 6 -22 9 -23 208 0 112 2 210
6 220 6 16 26 17 230 14 166 -2 226 -6 236 -16z"/>
<path d="M219 1223 c-3 -51 4 -829 7 -835 5 -7 167 -8 197 0 16 4 17 33 17
428 l0 424 -110 0 c-98 0 -110 -2 -111 -17z"/>
</g>
</svg>
