<?xml version="1.0" standalone="no"?>
<!DOCTYPE svg PUBLIC "-//W3C//DTD SVG 20010904//EN"
 "http://www.w3.org/TR/2001/REC-SVG-20010904/DTD/svg10.dtd">
<svg version="1.0" xmlns="http://www.w3.org/2000/svg"
 width="512.000000pt" height="512.000000pt" viewBox="0 0 512.000000 512.000000"
 preserveAspectRatio="xMidYMid meet">

<g transform="translate(0.000000,512.000000) scale(0.100000,-0.100000)"
fill="#B2B7BC" stroke="none">
<path d="M622 4190 c-74 -27 -140 -77 -185 -140 -72 -103 -68 -6 -65 -1511 l3
-1354 29 -60 c38 -76 105 -143 181 -181 l60 -29 1340 0 1340 0 56 26 c98 46
165 122 208 232 14 37 17 130 21 711 l5 669 495 -640 c272 -353 508 -649 524
-658 41 -25 101 -15 140 24 l31 31 0 1250 0 1250 -31 31 c-39 39 -99 49 -140
24 -16 -9 -252 -305 -524 -658 l-495 -640 -5 669 c-4 581 -7 674 -21 711 -43
110 -110 186 -208 232 l-56 26 -1325 2 c-1283 2 -1327 2 -1378 -17z m2245
-482 c108 -51 168 -146 168 -268 0 -123 -56 -215 -163 -267 -75 -37 -183 -39
-253 -4 -185 89 -231 329 -91 474 90 93 224 119 339 65z"/>
</g>
</svg>
