<?xml version="1.0" encoding="utf-8"?>
<svg version="1.1" id="Layer_1" x="0px" y="0px" width="100%" viewBox="0 0 200 200" enable-background="new 0 0 200 200" xmlns="http://www.w3.org/2000/svg">
  <defs/>
  <path opacity="1.000000" stroke="none" d="M 99.409 182.262 C 71.415 182.262 43.883 182.262 16.324 182.262 C 16.324 130.435 16.324 78.609 16.324 26.712 C 77.768 26.712 139.236 26.712 200.847 26.712 C 200.847 78.515 200.847 130.389 200.847 182.262 C 167.24 182.262 133.555 182.262 99.409 182.262 M 71.19 99.618 C 82.646 103.641 94.087 107.694 105.577 111.646 C 106.89 112.097 108.683 112.452 109.903 112.066 C 127.115 106.608 144.299 101.081 161.382 95.345 C 162.994 94.804 164.638 92.835 164.885 91.363 C 165.093 90.122 163.468 88.524 162.319 87.31 C 161.605 86.556 160.295 86.173 159.201 85.708 C 144.476 79.442 129.748 73.178 115.003 66.944 C 110.946 65.228 107.196 64.554 102.562 66.629 C 87.712 73.281 72.676 79.663 57.453 85.685 C 52.565 87.618 50.905 90.169 51.068 94.352 C 51.224 98.351 50.924 102.362 50.992 106.365 C 51.052 109.93 50.856 113.584 51.759 117.014 C 52.141 118.464 55.07 120.393 56.806 120.367 C 58.536 120.341 60.609 118.353 61.789 116.819 C 62.579 115.791 62.129 114.055 62.137 112.635 C 62.163 107.518 62.147 102.399 62.147 96.688 C 65.453 97.754 67.989 98.572 71.19 99.618 M 74.195 125.997 C 95.551 136.791 117.232 137.764 139.178 127.364 C 141.166 126.422 143.835 124.81 144.082 123.269 C 144.759 119.035 144.315 114.674 144.315 109.845 C 137.013 112.203 130.12 113.787 123.976 116.553 C 113.359 121.332 103.502 121.425 92.946 116.325 C 86.583 113.251 79.341 111.472 71.951 108.923 C 71.951 112.685 71.731 115.668 72.021 118.615 C 72.252 120.962 73.107 123.267 74.195 125.997 M 56.519 143.409 C 59.67 143.181 61.807 141.805 62.042 139.131 C 62.313 136.058 62.297 132.945 62.053 129.869 C 61.841 127.207 59.895 125.602 56.623 125.655 C 53.442 125.707 51.568 127.167 51.421 129.922 C 51.283 132.486 51.305 135.056 51.169 137.621 C 51.014 140.528 52.201 142.592 56.519 143.409 Z" style="fill: none; fill-rule: nonzero;"/>
  <path fill="#B2B7BC" opacity="1.000000" stroke="none" d="M 36.242 88.13 C 31.498 85.879 27.305 83.906 21.839 81.333 C 21.839 95.127 21.864 107.489 21.822 119.852 C 21.809 123.284 22.554 127.48 21.248 129.959 C 19.296 133.667 15.869 138.467 13.006 138.53 C 10.137 138.593 5.295 133.935 4.662 130.431 C 3.168 122.146 3.493 113.317 3.393 104.706 C 3.281 95.035 3.779 85.349 3.519 75.686 C 3.25 65.582 5.994 59.419 14.076 54.75 C 39.25 40.206 64.112 24.79 88.667 8.723 C 96.331 3.713 102.53 5.336 109.237 9.485 C 133.622 24.542 157.975 39.672 182.323 54.808 C 184.132 55.931 186.298 56.855 187.479 58.678 C 189.377 61.612 192.064 65.471 191.721 68.47 C 191.311 72.023 188.594 76.783 185.929 78.087 C 157.682 91.943 129.268 105.293 100.805 118.475 C 98.791 119.409 95.825 118.553 93.653 117.462 C 74.655 107.914 55.735 98.123 36.242 88.13 Z" style=""/>
  <path fill="#AFB4B9" opacity="1.000000" stroke="none" d="M 41.34 151.497 C 39.963 145.46 38.55 139.952 38.165 134.34 C 37.686 127.299 38.05 120.174 38.05 111.18 C 50.272 117.272 62.246 121.526 72.767 128.869 C 90.222 141.059 106.521 140.834 124.077 129.413 C 134.236 122.805 145.634 119.02 157.709 113.384 C 157.709 124.926 158.442 135.345 157.321 145.464 C 156.917 149.144 152.502 152.997 149.213 155.249 C 112.925 180.103 77.073 177.775 41.34 151.497 Z" style=""/>
  <path fill="#AAAEB3" opacity="1.000000" stroke="none" d="M 11.952 193.424 C 5.396 191.639 3.429 186.709 3.683 179.759 C 3.912 173.63 3.876 167.492 4.103 161.364 C 4.347 154.78 7.447 151.287 12.704 151.165 C 18.114 151.038 21.334 154.876 21.683 161.235 C 22.086 168.586 22.113 176.025 21.666 183.371 C 21.276 189.761 17.743 193.046 11.952 193.424 Z" style=""/>
</svg>